# AST/ASF file generated using VICON BodyLanguage
# -----------------------------------------------
:version 1.10
:name VICON
:units
  mass 1.0
  length 0.45
  angle deg
:documentation
   .ast/.asf automatically generated from VICON data using
   VICON BodyBuilder and BodyLanguage model FoxedUp or BRILLIANT.MOD
:root
   order TX TY TZ RX RY RZ
   axis XYZ
   position 0 0 0  
   orientation 0 0 0 
:bonedata
  begin
     id 1 
     name lhipjoint
     direction 0.61886 -0.69539 0.365302 
     length 2.20474 
     axis 0 0 0  XYZ
  end
  begin
     id 2 
     name lfemur
     direction 0.34202 -0.939693 0  
     length 6.65149  
     axis 0 0 20  XYZ
    dof rx ry rz
    limits (-160.0 20.0)
           (-70.0 70.0)
           (-60.0 70.0)
  end
  begin
     id 3 
     name ltibia
     direction 0.34202 -0.939693 0   
     length 6.35814   
     axis 0 0 20   XYZ
    dof rx
    limits (-10.0 170.0)
  end
  begin
     id 4 
     name lfoot
     direction 0.101224 -0.278109 0.955201   
     length 2.18766   
     axis -90 7.62852e-016 20   XYZ
    dof rx rz
    limits (-45.0 90.0)
           (-70.0 20.0)
  end
  begin
     id 5 
     name ltoes
     direction 1.53524e-011 -4.21877e-011 1   
     length 1.09206   
     axis -90 7.62852e-016 20   XYZ
    dof rx
    limits (-90.0 20.0)
  end
  begin
     id 6 
     name rhipjoint
     direction -0.600207 -0.708087 0.371972   
     length 2.1652  
     axis 0 0 0  XYZ 
  end
  begin
     id 7 
     name rfemur
     direction -0.34202 -0.939693 0   
     length 6.54691   
     axis 0 0 -20   XYZ
    dof rx ry rz
    limits (-160.0 20.0)
           (-70.0 70.0)
           (-70.0 60.0)
  end
  begin
     id 8 
     name rtibia
     direction -0.34202 -0.939693 0   
     length 6.37474   
     axis 0 0 -20   XYZ
    dof rx
    limits (-10.0 170.0)
 end
 begin
     id 9 
     name rfoot
     direction -0.111266 -0.3057 0.945604   
     length 2.00903  
     axis -90 -7.62852e-016 -20   XYZ
    dof rx rz
    limits (-45.0 90.0)
           (-20.0 70.0)
  end
  begin
     id 10 
     name rtoes
     direction -1.5362e-011 -4.21913e-011 1   
     length 1.00221   
     axis -90 -7.62852e-016 -20   XYZ
    dof rx
    limits (-90.0 20.0)
  end
  begin
     id 11 
     name lowerback
     direction -0.0224561 0.999731 -0.00577314   
     length 2.10409   
     axis 0 0 0   XYZ
    dof rx ry rz
    limits (-20.0 45.0)
           (-30.0 30.0)
           (-30.0 30.0)
  end
  begin
     id 12 
     name upperback
     direction 0.0213126 0.999185 -0.0342817   
     length 2.09783   
     axis 0 0 0   XYZ
    dof rx ry rz
    limits (-20.0 45.0)
           (-30.0 30.0)
           (-30.0 30.0)
  end
  begin
     id 13 
     name thorax
     direction 0.0312356 0.999036 -0.0308451   
     length 2.09788   
     axis 0 0 0   XYZ
    dof rx ry rz
    limits (-20.0 45.0)
           (-30.0 30.0)
           (-30.0 30.0)
  end
  begin
     id 14 
     name lowerneck
     direction -0.0114419 0.996481 0.0830329   
     length 1.38575   
     axis 0 0 0   XYZ
    dof rx ry rz
    limits (-20.0 45.0)
           (-30.0 30.0)
           (-30.0 30.0)
  end
  begin
     id 15 
     name upperneck
     direction -0.0075675 0.996187 -0.0869092   
     length 1.39401   
     axis 0 0 0   XYZ
    dof rx ry rz
    limits (-20.0 45.0)
           (-30.0 30.0)
           (-30.0 30.0)
  end
  begin
     id 16
     name head
     direction -0.00222073 0.999264 -0.0382974  
     length 1.3964  
     axis 0 0 0   XYZ
    dof rx ry rz
    limits (-20.0 45.0)
           (-30.0 30.0)
           (-30.0 30.0)
  end
  begin
     id 17 
     name lclavicle
     direction 0.965962 0.222138 0.132556  
     length 2.81514  
     axis 0 0 0   XYZ
    dof ry rz
    limits (-20.0 10.0)
           (0.0 20.0)
  end
  begin
     id 18 
     name lhumerus
     direction 1 -4.48972e-011 7.03471e-018   
     length 4.47366   
     axis 180 -30 -90   XYZ
    dof rx ry rz
    limits (-60.0 90.0)
           (-90.0 90.0)
           (-90.0 90.0)
  end
  begin
     id 19
     name lradius
     direction 1 -4.48951e-011 -6.22192e-028   
     length 3.19948   
     axis 180 -30 -90   XYZ
    dof rx
    limits (-10.0 170.0)
  end
  begin
     id 20
     name lwrist
     direction 1 -4.48967e-011 -1.24264e-027   
     length 1.59974   
     axis 1.40095e-015 90 90   XYZ
    dof ry
    limits (-180.0 0.0)
 end
  begin
     id 21 
     name lhand
     direction 1 -4.4897e-011 -2.48528e-027   
     length 0.492667   
     axis 1.58582e-015 90 90   XYZ
    dof rx rz
    limits (-90.0 90.0)
           (-45.0 45.0)
  end
  begin
     id 22 
     name lfingers
     direction 1 -4.48996e-011 -4.97056e-027   
     length 0.397201   
     axis 3.17164e-015 90 90   XYZ
    dof rx
    limits (0.0 90.0)
  end
  begin
     id 23
     name lthumb
     direction 0.707107 -6.34981e-011 0.707107   
     length 0.570303   
     axis -90 45 2.85299e-015   XYZ
    dof rx rz
    limits (-45.0 45.0)
           (-45.0 45.0)
  end
  begin
     id 24 
     name rclavicle
     direction -0.961164 0.229034 0.153972   
     length 3.09348  
     axis 0 0 0   XYZ 
    dof ry rz
    limits (-10.0 20.0)
           (-20.0 0.0)
  end
  begin
     id 25 
     name rhumerus
     direction -1 -4.48971e-011 -9.06263e-028  
     length 4.3269   
     axis 180 30 90   XYZ
    dof rx ry rz
    limits (-90.0 60.0)
           (-90.0 90.0)
           (-90.0 90.0)
  end
  begin
     id 26 
     name rradius
     direction -1 -4.48953e-011 1.44659e-027   
     length 3.1896   
     axis 180 30 90   XYZ
    dof rx
    limits (-10.0 170.0)
  end
  begin
     id 27 
     name rwrist
     direction -1 -4.48988e-011 -1.24264e-027   
     length 1.5948   
     axis 1.40095e-015 -90 -90   XYZ
    dof ry
    limits (-180.0 0.0)
  end
  begin
     id 28
     name rhand
     direction -1 -4.49033e-011 -2.48528e-027   
     length 0.464496   
     axis 1.58582e-015 -90 -90   XYZ
    dof rx rz
    limits (-90.0 90.0)
           (-45.0 45.0)
  end
  begin
     id 29
     name rfingers
     direction -1 -4.48905e-011 -4.97056e-027   
     length 0.374489   
     axis 3.17164e-015 -90 -90   XYZ
    dof rx
    limits (0.0 90.0)
  end
  begin
     id 30
     name rthumb
     direction -0.707107 -6.34909e-011 0.707107   
     length 0.537693   
     axis -90 -45 -2.85299e-015   XYZ
    dof rx rz
    limits (-45.0 45.0)
           (-45.0 45.0)
  end
:hierarchy
  begin
    root lhipjoint rhipjoint lowerback
    lhipjoint lfemur
    lfemur ltibia
    ltibia lfoot
    lfoot ltoes
    rhipjoint rfemur
    rfemur rtibia
    rtibia rfoot
    rfoot rtoes
    lowerback upperback
    upperback thorax
    thorax lowerneck lclavicle rclavicle
    lowerneck upperneck
    upperneck head
    lclavicle lhumerus
    lhumerus lradius
    lradius lwrist
    lwrist lhand lthumb
    lhand lfingers
    rclavicle rhumerus
    rhumerus rradius
    rradius rwrist
    rwrist rhand rthumb
    rhand rfingers
  end

#!OML:ASF G:\acrobat\cartwheel_test 2\Patient 1\Session 2\acrobat4.ASF
:FULLY-SPECIFIED
:DEGREES
2307
root 9.87042 20.7353 -27.9198 556.594 -129.884 180.225
lowerback 2.47084 2.80493 0.545783
upperback 3.34618 3.63374 3.65027
thorax 1.85192 1.75975 3.41422
lowerneck -14.4687 0.936314 2.54411
upperneck 33.3664 1.85696 -5.06819
head 13.8084 0.305772 -2.21731
rclavicle -1.35969e-013 1.74931e-014
rhumerus 0.5376 67.0204 -64.7247
rradius 93.5397
rwrist 28.3494
rhand -14.1446 -13.061
rfingers 7.12502
rthumb 11.9897 317.302
lclavicle -1.35969e-013 1.74931e-014
lhumerus -31.454 -43.0327 93.556
lradius 102.208
lwrist 40.3739
lhand -27.6406 729.089
lfingers 7.12502
lthumb -1.03882 -680.934
rfemur -32.3014 1.98197 18.7807
rtibia 43.1935
rfoot -22.9924 -18.2984
rtoes -23.6629
lfemur -41.9497 11.0936 -30.7771
ltibia 45.4309
lfoot -9.79932 16.5353
ltoes 38.8894
2308
root 9.88839 20.7366 -27.8653 556.831 -128.621 179.921
lowerback 2.37047 2.88889 0.670268
upperback 3.55881 3.7341 3.56778
thorax 2.13549 1.80864 3.27226
lowerneck -12.6238 0.960164 1.72093
upperneck 31.6985 1.79447 -4.13902
head 12.6697 0.331161 -1.6644
rclavicle 1.82882e-014 -8.42847e-014
rhumerus 1.289 67.1784 -64.3495
rradius 93.2332
rwrist 28.4429
rhand -14.0699 -12.6232
rfingers 7.12502
rthumb 12.0617 317.744
lclavicle 1.82882e-014 -8.42847e-014
lhumerus -31.7353 -43.0504 93.6129
lradius 102.193
lwrist 41.5396
lhand -30.0062 727.754
lfingers 7.12502
lthumb -3.32345 -682.292
rfemur -32.4239 2.28032 18.5697
rtibia 43.0988
rfoot -22.3802 -18.0875
rtoes -25.8782
lfemur -41.8874 11.1178 -30.7401
ltibia 45.5358
lfoot -9.94225 17.44
ltoes 39.1352
2309
root 9.91812 20.7338 -27.8441 557.086 -127.71 179.761
lowerback 2.38033 2.94275 0.776819
upperback 3.75783 3.79876 3.44185
thorax 2.34755 1.84121 3.0898
lowerneck -13.5278 1.1365 2.52296
upperneck 32.3218 2.02251 -4.73188
head 13.1518 0.434175 -2.02111
rclavicle 1.90833e-014 6.36111e-015
rhumerus 2.01704 66.9529 -63.8972
rradius 93.0265
rwrist 28.7498
rhand -13.845 -12.1227
rfingers 7.12502
rthumb 12.2786 318.258
lclavicle 1.90833e-014 6.36111e-015
lhumerus -31.1414 -42.8287 92.9501
lradius 101.853
lwrist 40.2925
lhand -27.2714 728.87
lfingers 7.12502
lthumb -0.682245 -681.151
rfemur -32.7351 2.64446 18.3937
rtibia 43.0771
rfoot -21.9411 -18.0955
rtoes -27.8384
lfemur -42.1145 11.4363 -30.8512
ltibia 45.6275
lfoot -9.83846 17.7351
ltoes 39.46
2310
root 9.95454 20.7342 -27.836 557.221 -127.049 179.861
lowerback 2.1064 3.06765 1.12971
upperback 4.19587 3.94702 3.07669
thorax 2.99694 1.92291 2.55173
lowerneck -14.3439 0.294177 1.55504
upperneck 31.9321 0.999114 -4.48781
head 13.1072 -0.0980658 -1.90154
rclavicle 4.92986e-014 3.18055e-015
rhumerus 3.18458 65.988 -63.0863
rradius 92.8964
rwrist 29.0432
rhand -13.3997 -11.9876
rfingers 7.12502
rthumb 12.7079 318.419
lclavicle 4.92986e-014 3.18055e-015
lhumerus -29.783 -43.6152 91.7236
lradius 101.702
lwrist 40.2346
lhand -26.7032 729.187
lfingers 7.12502
lthumb -0.133467 -680.833
rfemur -33.143 3.31304 18.0073
rtibia 43.0918
rfoot -22.0298 -18.3913
rtoes -27.7859
lfemur -42.4753 11.8471 -31.1496
ltibia 45.6952
lfoot -9.97502 17.5681
ltoes 40.1644
2311
root 9.99143 20.7362 -27.8189 557.307 -126.398 180.007
lowerback 2.0544 3.03882 1.27772
upperback 4.37982 3.90196 2.91957
thorax 3.23937 1.90485 2.31881
lowerneck -14.7528 0.376762 2.18986
upperneck 32.1252 1.11623 -5.05272
head 13.2894 -0.0514227 -2.22729
rclavicle -2.3059e-014 -6.04305e-014
rhumerus 3.89356 65.7964 -62.4346
rradius 92.8992
rwrist 29.2242
rhand -13.0469 -12.055
rfingers 7.12502
rthumb 13.048 318.373
lclavicle -2.3059e-014 -6.04305e-014
lhumerus -29.2165 -43.8699 91.1865
lradius 101.65
lwrist 40.476
lhand -26.9387 729.373
lfingers 7.12502
lthumb -0.360928 -680.647
rfemur -33.5582 3.84164 17.5663
rtibia 43.1423
rfoot -22.2016 -18.684
rtoes -27.2943
lfemur -42.7622 12.0918 -31.4333
ltibia 45.7458
lfoot -6.69479 16.2366
ltoes 19.4247
2312
root 10.0275 20.7353 -27.7929 557.387 -125.625 180.081
lowerback 2.24358 2.91855 1.219
upperback 4.3097 3.74699 2.97653
thorax 3.05708 1.82524 2.39518
lowerneck -14.4354 0.519684 2.18193
upperneck 31.9443 1.3577 -5.18932
head 13.1568 0.0352638 -2.23582
rclavicle -3.73715e-014 -2.06736e-014
rhumerus 4.18553 66.2894 -62.0963
rradius 92.7737
rwrist 29.4969
rhand -12.8929 -11.8073
rfingers 7.12502
rthumb 13.1964 318.63
lclavicle -3.73715e-014 -2.06736e-014
lhumerus -29.5037 -43.5229 91.4303
lradius 101.651
lwrist 40.5923
lhand -23.4969 733.064
lfingers 7.12502
lthumb 2.96324 -676.977
rfemur -33.9097 4.00795 17.2314
rtibia 43.161
rfoot -21.9215 -18.7888
rtoes -28.1695
lfemur -42.9202 12.1393 -31.5742
ltibia 45.7969
lfoot -6.97604 16.4268
ltoes 20.2939
2313
root 10.0597 20.7332 -27.767 557.636 -124.758 179.794
lowerback 2.52292 2.88612 1.35766
upperback 4.19502 3.71374 3.02178
thorax 2.78841 1.81264 2.34397
lowerneck -11.8474 0.30811 0.534663
upperneck 29.9267 0.980894 -3.70495
head 11.7516 -0.0906883 -1.36789
rclavicle 1.48691e-013 7.95139e-015
rhumerus 3.32124 66.4816 -62.9838
rradius 92.657
rwrist 29.9956
rhand -12.5851 -11.1781
rfingers 7.12502
rthumb 13.4932 319.279
lclavicle 1.48691e-013 7.95139e-015
lhumerus -30.074 -43.4619 91.8741
lradius 101.585
lwrist 40.8952
lhand -23.8092 732.001
lfingers 7.12502
lthumb 2.66159 -678.036
rfemur -34.0802 4.48187 17.0929
rtibia 43.1398
rfoot -22.1887 -18.7761
rtoes -27.7379
lfemur -42.9764 12.3161 -31.4383
ltibia 45.873
lfoot -7.3909 16.5725
ltoes 21.0857
2314
root 10.0863 20.7322 -27.7439 557.863 -123.763 179.383
lowerback 2.49116 2.9967 1.76547
upperback 4.42008 3.85252 2.84968
thorax 3.07501 1.89383 1.95189
lowerneck -14.8746 0.354128 2.19933
upperneck 32.7203 1.10969 -5.24594
head 13.5742 -0.0977082 -2.33024
rclavicle 2.3059e-014 2.22639e-014
rhumerus 2.41984 65.7959 -64.1947
rradius 92.6097
rwrist 30.4439
rhand -12.0397 -10.1607
rfingers 7.12502
rthumb 14.0188 320.332
lclavicle 2.3059e-014 2.22639e-014
lhumerus -30.0126 -44.0103 91.6775
lradius 101.533
lwrist 41.6618
lhand -25.9813 729.667
lfingers 7.12502
lthumb 0.563759 -680.354
rfemur -34.0834 4.99352 17.022
rtibia 43.1084
rfoot -23.3518 -18.4515
rtoes -25.9313
lfemur -42.9403 12.8557 -31.338
ltibia 45.9766
lfoot -7.66447 16.6293
ltoes 20.7001
2315
root 10.1113 20.7238 -27.72 557.667 -122.773 179.655
lowerback 2.55807 2.92038 1.29054
upperback 4.32564 3.75482 2.90544
thorax 2.90604 1.83101 2.2647
lowerneck -13.5179 0.292282 1.49821
upperneck 31.9711 0.977244 -4.5894
head 12.9448 -0.141652 -1.9338
rclavicle 2.94201e-014 -3.65764e-014
rhumerus 1.64261 66.0184 -64.9868
rradius 92.6486
rwrist 30.4251
rhand -11.3253 -9.37339
rfingers 7.12502
rthumb 14.7071 321.168
lclavicle 2.94201e-014 -3.65764e-014
lhumerus -30.7446 -43.8892 92.2181
lradius 101.63
lwrist 42.3324
lhand -28.1694 728.332
lfingers 7.12502
lthumb -1.54957 -681.694
rfemur -34.2581 4.67428 16.7162
rtibia 43.1109
rfoot -24.0691 -18.0091
rtoes -25.4362
lfemur -43.0235 13.387 -31.8095
ltibia 46.0826
lfoot -7.90015 16.758
ltoes 19.0658
2316
root 10.1375 20.7094 -27.6998 557.409 -121.902 180.081
lowerback 2.56222 2.88372 0.954117
upperback 4.17763 3.71477 2.83032
thorax 2.73424 1.80533 2.3682
lowerneck -14.8806 0.225079 1.95017
upperneck 33.5981 0.898216 -5.07433
head 13.9497 -0.218714 -2.28372
rclavicle -1.66979e-014 -1.11319e-014
rhumerus 0.987494 66.1397 -65.5296
rradius 92.6945
rwrist 30.2474
rhand -10.7485 -9.05599
rfingers 7.12502
rthumb 15.2627 321.527
lclavicle -1.66979e-014 -1.11319e-014
lhumerus -31.0985 -44.0286 92.4116
lradius 101.56
lwrist 42.7493
lhand -29.1627 727.454
lfingers 7.12502
lthumb -2.50882 -682.581
rfemur -34.4898 4.47051 16.3947
rtibia 43.1704
rfoot -24.9995 -17.8374
rtoes -24.0915
lfemur -43.206 13.9401 -32.4207
ltibia 46.2035
lfoot -8.11742 16.8922
ltoes 16.6563
2317
root 10.1591 20.6955 -27.6842 557.403 -120.977 179.907
lowerback 3.30443 2.53858 -0.180273
upperback 3.56577 3.26871 3.51406
thorax 1.59925 1.55895 3.65152
lowerneck -13.3653 0.324613 0.838068
upperneck 33.3509 1.21772 -4.80836
head 13.5145 -0.186585 -1.91215
rclavicle 6.36111e-015 5.725e-014
rhumerus -0.0595447 67.9639 -65.8476
rradius 92.9604
rwrist 29.8064
rhand -9.90109 -8.64793
rfingers 7.12502
rthumb 16.0789 321.999
lclavicle 6.36111e-015 5.725e-014
lhumerus -32.8319 -42.3716 94.0506
lradius 101.434
lwrist 42.7371
lhand -28.64 727.841
lfingers 7.12502
lthumb -2.00405 -682.189
rfemur -34.4116 5.03071 16.3301
rtibia 43.3248
rfoot -27.2804 -17.4556
rtoes -19.5293
lfemur -43.1596 14.7285 -32.6403
ltibia 46.2719
lfoot -8.46566 17.1695
ltoes 15.0236
